<?xml version="1.0" encoding="utf-8"?>
<!-- Generator: Adobe Illustrator 26.2.1, SVG Export Plug-In . SVG Version: 6.00 Build 0)  -->
<svg version="1.1" id="Layer_1" xmlns="http://www.w3.org/2000/svg" xmlns:xlink="http://www.w3.org/1999/xlink" x="0px" y="0px"
	 viewBox="0 0 700 576.7" style="enable-background:new 0 0 700 576.7;" xml:space="preserve">
<style type="text/css">
	.st0{fill:#9FABB2;}
</style>
<g>
	<path class="st0" d="M577.6,38.8H204.7c-17.9,0-35.1,7.1-47.9,19.7c-12.7,12.6-20,29.8-20.1,47.7l-2.5,262.2l-64.3,0
		c-4.9,0-9.6,2-13.1,5.4c-3.5,3.5-5.4,8.2-5.4,13.1v45.2c-0.2,23,8.6,45.2,24.6,61.9c15.9,16.6,37.7,26.4,60.8,27.2h319.1
		c23.5,0,45.9-9.3,62.5-25.9c16.6-16.6,25.9-39.1,25.9-62.5v-222h86c4.9,0,9.6-2,13.1-5.4c3.5-3.5,5.4-8.2,5.4-13.1v-82.3
		c0-18.9-7.5-37-20.8-50.3C614.5,46.3,596.5,38.8,577.6,38.8L577.6,38.8z M139.7,484.1c-13.6,0-26.7-5.4-36.3-15
		c-9.6-9.6-15-22.7-15-36.3v-27.2h278.3v26.6c-0.1,18.6,5.8,36.8,16.7,51.9H139.7z M506.5,432.8c0,18.5-9.8,35.5-25.8,44.7
		c-16,9.2-35.7,9.2-51.6,0c-16-9.2-25.8-26.3-25.8-44.7V387c0-4.9-2-9.6-5.4-13.1c-3.5-3.5-8.2-5.4-13.1-5.4H171.3l2.5-261.6
		c0-8.2,3.3-16.1,9.1-21.9c5.8-5.8,13.7-9.1,21.9-9.1h311.1c-5.7,10.4-8.7,22.1-8.7,34L506.5,432.8z M611.6,173.6h-67.4v-63.7
		c-1.3-9.7,1.6-19.6,8.1-27c6.5-7.4,15.8-11.6,25.6-11.6c9.8,0,19.2,4.2,25.6,11.6c6.5,7.4,9.4,17.2,8.1,27L611.6,173.6z"/>
	<path class="st0" d="M213.3,142.1h133v37.1h-133L213.3,142.1z"/>
	<path class="st0" d="M213.3,216.3h244.3v37.1H213.3V216.3z"/>
	<path class="st0" d="M213.3,290.5h244.3v37.1H213.3V290.5z"/>
</g>
</svg>
